<svg xmlns="http://www.w3.org/2000/svg" width="31.746" height="26.285" viewBox="0 0 31.746 26.285"><defs><style>.a{fill:none;stroke:#0ea983;stroke-linejoin:round;}</style></defs><g transform="translate(-3.887 -1.81)"><g transform="translate(0 0)"><path class="a" d="M4.445,27.784l.175.1a17.905,17.905,0,0,0,9.189,2.57h.115a17.68,17.68,0,0,0,13.4-5.872,18.2,18.2,0,0,0,4.752-12.8l-.025-.375.329-.18A6.5,6.5,0,0,0,35.128,8.3l.063-.14-.329.164a10.206,10.206,0,0,1-.954.364l-1.934.633L33.268,7.75A6.412,6.412,0,0,0,34.4,5.728l.047-.142-.126.077a14.125,14.125,0,0,1-3.625,1.518l-.315.074-.233-.228a6.477,6.477,0,0,0-4.518-1.855,6.373,6.373,0,0,0-6.437,6.437c0,.077.019.318.046.581l.066.693-.693-.046A16.925,16.925,0,0,1,6.382,6.307l-.05-.066-.039.072a6.725,6.725,0,0,0,.43,7.342L7.753,15.1l-1.69-.54a6.035,6.035,0,0,1-.589-.224L5.391,14.3l0,.091a6.726,6.726,0,0,0,2.63,4.97l2.308,1.773L7.541,20.4l.033.1a6.759,6.759,0,0,0,4.483,4.308l1.329.4-1.208.682A15.172,15.172,0,0,1,5.061,27.8c-.209,0-.345,0-.427-.008Z" transform="translate(-0.058 -2.862)"/></g></g></svg>